<?xml version="1.0" encoding="utf-8"?>
<!-- Generator: Adobe Illustrator 21.0.2, SVG Export Plug-In . SVG Version: 6.00 Build 0)  -->
<svg version="1.1" id="Layer_1" xmlns="http://www.w3.org/2000/svg" xmlns:xlink="http://www.w3.org/1999/xlink" x="0px" y="0px"
	 viewBox="0 0 144 144" style="enable-background:new 0 0 144 144;" xml:space="preserve">
<style type="text/css">
	.st0{fill:#1CA4D6;}
	.st1{fill-rule:evenodd;clip-rule:evenodd;fill:#1CA4D6;}
	.st2{fill-rule:evenodd;clip-rule:evenodd;fill:#727270;}
	.st3{fill-rule:evenodd;clip-rule:evenodd;fill:#67CDFD;}
	.st4{fill-rule:evenodd;clip-rule:evenodd;fill:#FED402;}
	.st5{fill-rule:evenodd;clip-rule:evenodd;fill:#FEFEFE;}
	.st6{fill:#FED402;}
</style>
<rect x="-182.3" y="-8.5" class="st0" width="144" height="144"/>
<g>
	<path class="st1" d="M121.8,135.5H31V13.4h24.8v0.9c0,2,1.8,3.5,3.8,3.5h33.6c2.1,0,3.8-1.5,3.8-3.5v-0.9h24.8V135.5z"/>
	<path class="st2" d="M62.8,65.1c0-4.4-3.5-7.9-7.9-7.9c-4.4,0-7.9,3.5-7.9,7.9c0,4.4,3.5,7.9,7.9,7.9C59.3,73,62.8,69.5,62.8,65.1
		L62.8,65.1z"/>
	<path class="st3" d="M99.9,60.8H73c-2.6,0-4.4,2-4.4,4.4c0,2.6,1.8,4.7,4.4,4.7h26.9c2.6,0,4.7-2,4.7-4.7
		C104.6,62.8,102.5,60.8,99.9,60.8L99.9,60.8z"/>
	<path class="st2" d="M62.8,89.1c0-4.4-3.5-7.9-7.9-7.9c-4.4,0-7.9,3.5-7.9,7.9c0,4.4,3.5,7.9,7.9,7.9C59.3,97,62.8,93.5,62.8,89.1
		L62.8,89.1z"/>
	<path class="st3" d="M99.9,84.7H73c-2.6,0-4.4,2-4.4,4.4c0,2.6,1.8,4.7,4.4,4.7h26.9c2.6,0,4.7-2,4.7-4.7
		C104.6,86.7,102.5,84.7,99.9,84.7L99.9,84.7z"/>
	<path class="st2" d="M62.8,42.9c0-4.4-3.5-7.9-7.9-7.9c-4.4,0-7.9,3.5-7.9,7.9c0,4.4,3.5,7.9,7.9,7.9
		C59.3,50.8,62.8,47.3,62.8,42.9L62.8,42.9z"/>
	<path class="st2" d="M62.8,112.5c0-4.4-3.5-7.9-7.9-7.9c-4.4,0-7.9,3.5-7.9,7.9c0,4.4,3.5,7.9,7.9,7.9
		C59.3,120.3,62.8,116.8,62.8,112.5L62.8,112.5z"/>
	<path class="st3" d="M99.9,107.8H73c-2.6,0-4.4,2-4.4,4.7c0,2.3,1.8,4.4,4.4,4.4h26.9c2.6,0,4.7-2,4.7-4.4
		C104.6,109.8,102.5,107.8,99.9,107.8L99.9,107.8z"/>
	<path class="st3" d="M99.9,38.3H73c-2.6,0-4.4,2-4.4,4.7c0,2.3,1.8,4.4,4.4,4.4h26.9c2.6,0,4.7-2,4.7-4.4
		C104.6,40.3,102.5,38.3,99.9,38.3L99.9,38.3z"/>
	<path class="st4" d="M119.9,5h-26V3.2c0-1.8-1.8-3.2-3.8-3.2H56.5c-2,0-3.8,1.5-3.8,3.2V5H27c-4.7,0-8.2,3.5-8.2,7.6v123.9
		c0,4.1,3.5,7.6,8.2,7.6h92.9c4.4,0,7.9-3.5,7.9-7.6V12.6C127.8,8.5,124.3,5,119.9,5L119.9,5z"/>
	<path class="st5" d="M118.8,135.5H27.9V13.4h24.8v0.9c0,2,1.8,3.5,3.8,3.5h33.6c2.1,0,3.8-1.5,3.8-3.5v-0.9h24.8V135.5z"/>
	<path class="st1" d="M59.8,65.1c0-4.4-3.5-7.9-7.9-7.9c-4.4,0-7.9,3.5-7.9,7.9c0,4.4,3.5,7.9,7.9,7.9C56.3,73,59.8,69.5,59.8,65.1
		L59.8,65.1z"/>
	<path class="st1" d="M96.8,60.8H70c-2.6,0-4.4,2-4.4,4.4c0,2.6,1.8,4.7,4.4,4.7h26.9c2.6,0,4.7-2,4.7-4.7
		C101.5,62.8,99.5,60.8,96.8,60.8L96.8,60.8z"/>
	<path class="st1" d="M59.8,89.1c0-4.4-3.5-7.9-7.9-7.9c-4.4,0-7.9,3.5-7.9,7.9c0,4.4,3.5,7.9,7.9,7.9C56.3,97,59.8,93.5,59.8,89.1
		L59.8,89.1z"/>
	<path class="st1" d="M96.8,84.7H70c-2.6,0-4.4,2-4.4,4.4c0,2.6,1.8,4.7,4.4,4.7h26.9c2.6,0,4.7-2,4.7-4.7
		C101.5,86.7,99.5,84.7,96.8,84.7L96.8,84.7z"/>
	<path class="st1" d="M59.8,42.9c0-4.4-3.5-7.9-7.9-7.9c-4.4,0-7.9,3.5-7.9,7.9c0,4.4,3.5,7.9,7.9,7.9
		C56.3,50.8,59.8,47.3,59.8,42.9L59.8,42.9z"/>
	<path class="st1" d="M59.8,112.5c0-4.4-3.5-7.9-7.9-7.9c-4.4,0-7.9,3.5-7.9,7.9c0,4.4,3.5,7.9,7.9,7.9
		C56.3,120.3,59.8,116.8,59.8,112.5L59.8,112.5z"/>
	<path class="st1" d="M96.8,107.8H70c-2.6,0-4.4,2-4.4,4.7c0,2.3,1.8,4.4,4.4,4.4h26.9c2.6,0,4.7-2,4.7-4.4
		C101.5,109.8,99.5,107.8,96.8,107.8L96.8,107.8z"/>
	<path class="st1" d="M96.8,38.3H70c-2.6,0-4.4,2-4.4,4.7c0,2.3,1.8,4.4,4.4,4.4h26.9c2.6,0,4.7-2,4.7-4.4
		C101.5,40.3,99.5,38.3,96.8,38.3L96.8,38.3z"/>
</g>
<rect x="-85.5" y="9.5" class="st6" width="68" height="62"/>
</svg>
