<?xml version="1.0" encoding="utf-8"?>
<!-- Generator: Adobe Illustrator 21.0.2, SVG Export Plug-In . SVG Version: 6.00 Build 0)  -->
<svg version="1.1" id="Layer_1" xmlns="http://www.w3.org/2000/svg" xmlns:xlink="http://www.w3.org/1999/xlink" x="0px" y="0px"
	 viewBox="0 0 144 144" style="enable-background:new 0 0 144 144;" xml:space="preserve">
<style type="text/css">
	.st0{fill:#1CA4D6;}
	.st1{fill:#FED402;}
</style>
<rect x="-194" y="-0.5" class="st0" width="144" height="144"/>
<rect x="-85.5" y="9.5" class="st1" width="68" height="62"/>
<g>
	<g>
		<g>
			<path class="st1" d="M140,133.1c-8.3,0.8-13.8-7.5-13.8-7.5l-1.9,0.2c-1.4-2-1.7-5.6-1.4-16.3c0.3-10.7,1.5-22.9-1-27
				c-4.2-6.3-27.5-1.8-27.5-1.8c-1.9-11.4,3.6-19.2,5.3-24c1.7-4.8-1.5-8.2-1.5-8.2L87.8,32.8l2.4-6.3c3.2,1.5,4.2-1.9,4.2-1.9
				l1.2-3.1l0.3-2.7l2-0.7l-1.9-3.1l-0.5-2.9C95.2,7.6,93.3,1,83.9,1c-9.3,0-11.2,8.5-11.2,8.5l-2,1.4c-4.6,1.9-7.8,21.2-5.6,25.5
				c2.2,4.2,2.9,8.2,2.9,8.2c-3.6,3.1-5.8,11.6-5.8,11.6c-0.8,6.3,6.5,20.4,6.5,20.4l-1.5,4.1c-11,8.7-5.1,20.2-5.1,20.2l-8.2,23.1
				c-3.7-3.7-16.2-5.1-20.4-3.9c-4.2,1.2-22.4-1.3-22.4-1.3l-2.7,1.5l-6.1,1.7c0,0,2,8.3,4.1,15.5c2,7.1,7.8,5.3,10.2,5.6
				c2.4,0.3,2-3.7,2-3.7l-3.9-2.2l2.5-5.1l4.4-3.4c10.9,0.3,32.6,9,38.4,8.5c8.3-1.5,21.4-33.3,21.4-33.3
				c12.8,0.2,24.8-7.8,24.8-7.8l3.7-1.5c-1.5,4.1,0.2,12.9,2,17.7c1.9,4.8,2,16.7,2,16.7l-1.4,0.9c0,0-0.3,4.4-1,8.5
				c-0.7,4.1,8.7,1.9,8.7,1.9s17.5-0.2,19.7-1.7C142.2,136.7,140,133.1,140,133.1z M72.7,31.3c1.5-6.5-1.1-16.8-1.1-16.8l2-0.9
				c-0.2,3.2,3.4,9.7,3.4,9.7C78.3,30.1,72.7,31.3,72.7,31.3z"/>
		</g>
		<g>
			<path class="st1" d="M16.7,144c-0.1,0-0.3,0-0.4,0c-0.4-0.1-0.9,0-1.5,0c-2.9,0.1-7.7,0.1-9.5-6.3c-2-7.1-4.1-15.4-4.1-15.5
				c-0.1-0.5,0.2-1.1,0.7-1.2l6-1.7l2.6-1.5c0.2-0.1,0.4-0.2,0.6-0.1c0.1,0,11.9,1.7,18.6,1.7c2,0,3-0.2,3.4-0.3
				c1.1-0.3,2.6-0.5,4.4-0.5c4.3,0,11.8,1,15.8,3.7l7.5-21.4c-1-2.2-4.7-12.7,5.3-20.9l1.3-3.4C66.3,74.1,60.4,62,61.2,56
				c0.1-0.5,2.2-8.3,5.7-11.8c-0.3-1.2-1-4.2-2.7-7.3c-1.8-3.5-0.4-14.4,2-20.9c1.2-3.3,2.6-5.2,4.1-5.9l1.6-1.1
				C72.4,7.1,75.1,0,83.9,0c7.6,0,11.9,4.1,12.7,12.1l0.5,2.6l1.8,2.9c0.2,0.3,0.2,0.6,0.1,0.9c-0.1,0.3-0.3,0.5-0.6,0.6l-1.4,0.5
				l-0.3,2.1c0,0.1,0,0.2-0.1,0.2L95.4,25c-0.3,1-1.4,2.9-3.6,2.9c-0.3,0-0.6,0-1-0.1L89,32.7l10.1,15.2c0,0,3.5,3.8,1.6,9.1
				c-0.4,1-0.9,2.1-1.5,3.4c-2.1,4.6-5,10.8-3.9,19c2.4-0.4,8.6-1.4,14.6-1.4c7,0,11.2,1.2,12.9,3.8c2.3,3.6,1.9,12.3,1.4,21.5
				c-0.1,2.1-0.2,4.1-0.3,6.1c-0.3,9.3-0.1,13.2,0.9,15.2l1.2-0.1c0.4,0,0.7,0.1,0.9,0.5c0,0.1,5.2,7.7,12.8,7c0.4,0,0.8,0.1,1,0.5
				c1,1.6,2.1,4.8-0.3,6.5c-2.3,1.6-17,1.8-20.2,1.9c-0.5,0.1-2.8,0.6-5,0.6l0,0c-2.1,0-3.5-0.4-4.3-1.4c-0.4-0.4-0.8-1.2-0.6-2.3
				c0.7-4,1-8.4,1-8.4c0-0.3,0.2-0.6,0.5-0.8l0.9-0.5c-0.1-2.4-0.4-11.8-2-15.7c-1.7-4.2-3.2-11.6-2.5-16.4l-1.9,0.8
				c-0.3,0.2-11.9,7.8-24.5,7.9c-2.2,5.4-13.7,31.8-21.9,33.3c-0.3,0-0.5,0-0.7,0c-3.1,0-8.9-1.7-15.7-3.6
				c-7.6-2.2-16.2-4.6-21.9-4.9l-3.9,3l-2,4l3.1,1.7c0.3,0.2,0.5,0.5,0.5,0.8c0,0.5,0.2,2.8-1,4.1C18,143.7,17.4,144,16.7,144z
				 M15.6,141.9c0.4,0,0.7,0,1,0.1l0.1,0c0.1,0,0.2,0,0.3-0.1c0.3-0.4,0.5-1.3,0.5-2l-3.4-1.9c-0.5-0.3-0.7-0.9-0.4-1.3l2.6-5.1
				c0.1-0.1,0.2-0.3,0.3-0.4l4.4-3.4c0.2-0.1,0.4-0.2,0.7-0.2c5.9,0.2,14.9,2.7,22.8,5c6.7,1.9,13,3.7,15.5,3.5
				c6.3-1.2,17-24,20.6-32.7c0.2-0.4,0.6-0.6,1-0.6h0.4c12.1,0,23.7-7.6,23.9-7.7l3.9-1.6c0.4-0.2,0.8-0.1,1.1,0.2
				c0.3,0.3,0.4,0.7,0.2,1.1c-1.4,3.7,0.2,12.4,2,16.9c1.9,4.9,2.1,16.5,2.1,17c0,0.4-0.2,0.7-0.5,0.9l-0.9,0.6
				c-0.1,1.3-0.4,4.8-1,8.1c-0.1,0.4,0.1,0.6,0.1,0.7c0.1,0.1,0.7,0.6,2.7,0.6c2.2,0,4.6-0.6,4.6-0.6c0.1,0,0.1,0,0.2,0
				c8.5-0.1,17.9-0.7,19.1-1.5c1-0.7,0.4-2.3,0-3.2c-7.4,0.4-12.3-5.7-13.7-7.5l-1.3,0.1c-0.4,0-0.7-0.1-0.9-0.5
				c-1.5-2.3-1.9-6.1-1.5-16.9c0.1-2,0.2-4.1,0.3-6.2c0.4-8.5,0.8-17.3-1.1-20.3c-0.9-1.3-3.6-2.9-11.2-2.9
				c-7.3,0-15.2,1.5-15.3,1.5c-0.3,0.1-0.5,0-0.8-0.2c-0.2-0.2-0.4-0.4-0.4-0.7c-1.5-9.3,1.7-16.5,3.9-21.2c0.6-1.2,1.1-2.3,1.4-3.3
				c1.5-4.1-1.3-7.1-1.3-7.1L87,33.4c-0.2-0.3-0.2-0.6-0.1-0.9l2.4-6.3c0.1-0.3,0.3-0.5,0.6-0.6c0.3-0.1,0.6-0.1,0.8,0
				c0.4,0.2,0.8,0.3,1.1,0.3c1.2,0,1.7-1.5,1.7-1.5l1.2-3l0.3-2.6c0-0.4,0.3-0.7,0.7-0.8l0.8-0.3l-1.2-2c-0.1-0.1-0.1-0.2-0.1-0.4
				l-0.5-2.9C93.9,5.3,90.5,2,83.9,2c-8.4,0-10.2,7.4-10.2,7.7c-0.1,0.3-0.2,0.5-0.4,0.6l-2,1.4c-0.1,0-0.1,0.1-0.2,0.1
				c-0.4,0.2-1.6,1-3,4.8c-2.5,6.9-3.3,16.9-2.1,19.3c2.3,4.3,3,8.3,3,8.5c0.1,0.4-0.1,0.7-0.3,0.9c-3.3,2.8-5.4,11-5.5,11
				c-0.8,5.8,6.3,19.5,6.4,19.7c0.1,0.3,0.2,0.6,0,0.8L68.1,81c-0.1,0.2-0.2,0.3-0.3,0.4c-10.3,8.1-4.9,18.8-4.8,18.9
				c0.1,0.2,0.1,0.5,0.1,0.8l-8.2,23.1c-0.1,0.3-0.4,0.6-0.7,0.7c-0.3,0.1-0.7,0-0.9-0.3c-2.5-2.5-10-4-15.5-4c-1.6,0-3,0.1-3.9,0.4
				c-0.9,0.2-2.2,0.4-4,0.4c-6.2,0-16.5-1.4-18.5-1.6l-2.4,1.4c-0.1,0-0.1,0.1-0.2,0.1l-5.2,1.4c0.6,2.4,2.2,8.8,3.8,14.5
				c1.2,4.3,3.8,4.9,6.5,4.9c0.4,0,0.7,0,1,0C15,141.9,15.3,141.9,15.6,141.9z M72.7,32.3c-0.3,0-0.5-0.1-0.7-0.3
				c-0.2-0.2-0.3-0.6-0.3-0.9c1.5-6.1-1.1-16.2-1.1-16.3c-0.1-0.5,0.1-1,0.6-1.2l2-0.9c0.3-0.1,0.7-0.1,1,0.1
				c0.3,0.2,0.5,0.5,0.4,0.9c-0.1,2.4,2.3,7.4,3.3,9.1c0.1,0.1,0.1,0.2,0.1,0.3c1.5,7.7-5,9.2-5,9.2C72.9,32.3,72.8,32.3,72.7,32.3z
				 M73.3,17.6c0.6,3.2,1.2,8,0.7,12c1.2-0.8,2.6-2.5,2-6C75.6,22.9,74.2,20.2,73.3,17.6z"/>
		</g>
	</g>
</g>
</svg>
