<?xml version="1.0" encoding="utf-8"?>
<!-- Generator: Adobe Illustrator 21.0.2, SVG Export Plug-In . SVG Version: 6.00 Build 0)  -->
<svg version="1.1" id="Layer_1" xmlns="http://www.w3.org/2000/svg" xmlns:xlink="http://www.w3.org/1999/xlink" x="0px" y="0px"
	 viewBox="0 0 144 144" style="enable-background:new 0 0 144 144;" xml:space="preserve">
<style type="text/css">
	.st0{fill:#1CA4D6;}
	.st1{fill:#FED402;}
	.st2{fill:#FFFFFF;}
</style>
<rect x="-194" y="-0.5" class="st0" width="144" height="144"/>
<rect x="-85.5" y="9.5" class="st1" width="68" height="62"/>
<path class="st2" d="M31.3,70.5L31.3,70.5l9.1-33.7h8l15.8,58.8l5.8-22l4-3.1h15.1L98,36.8h8l9.1,33.7h26.2c1.8-5.8,2.9-12,2.9-18.4
	c0-24.2-18.6-43.7-41.5-43.7c-12,0-23.1,5.5-30.6,14c-7.5-8.4-18.4-14-30.4-14C18.8,8.4,0,27.9,0,52.1c0,6.4,1.3,12.7,3.1,18.4H31.3
	z"/>
<path class="st1" d="M111.7,78.9h26.2C120.4,116.6,72,141,72,141S23.9,116.6,6.4,78.9h27.9l4-3.1l6-21.9l15.8,58.8h8l9.1-33.7H92
	l4-3.1l5.8-21.9l6,21.9L111.7,78.9z"/>
</svg>
