<?xml version="1.0" encoding="utf-8"?>
<!-- Generator: Adobe Illustrator 21.0.2, SVG Export Plug-In . SVG Version: 6.00 Build 0)  -->
<svg version="1.1" id="Layer_1" xmlns="http://www.w3.org/2000/svg" xmlns:xlink="http://www.w3.org/1999/xlink" x="0px" y="0px"
	 viewBox="0 0 144 144" style="enable-background:new 0 0 144 144;" xml:space="preserve">
<style type="text/css">
	.st0{fill:#1CA4D6;}
	.st1{fill:#FED402;}
	.st2{fill-rule:evenodd;clip-rule:evenodd;fill:#FED402;}
	.st3{fill-rule:evenodd;clip-rule:evenodd;fill:#FFFFFF;}
</style>
<rect x="-194" y="-0.5" class="st0" width="144" height="144"/>
<rect x="-85.5" y="9.5" class="st1" width="68" height="62"/>
<path class="st2" d="M62.4,88.5L62.4,88.5l36.3,46.8c10.9-10.4,12.6-27.7,3.5-39.7C92.8,83.2,75.7,80.6,62.4,88.5L62.4,88.5z"/>
<path class="st3" d="M73.5,64.6L73.5,64.6l27.9,21.7c5.1,3.5,11.3,5.1,17.3,4.2c6.2-0.7,11.7-4,15.5-8.9l1.3-1.8
	c4.4-6.2,5.8-14.2,3.3-21.5c-1.6-4.4-4.2-8.4-8.2-11.1l-27.9-21.7L73.5,64.6z"/>
<path class="st2" d="M41.6,9.4L41.6,9.4L40.3,11c-4.6,6.2-5.8,14.4-3.3,21.7c1.3,4.4,4.2,8.2,8,11.1l25.7,19.3l29-39.2L74.2,4.5
	C64-3,49.1-1,41.6,9.4L41.6,9.4z"/>
<path class="st3" d="M4.4,98.7L4.4,98.7l54.3-22.8c-7.3-13.5-23.5-19.5-37.5-13.7C6.8,68.2-0.1,83.9,4.4,98.7L4.4,98.7z"/>
<path class="st3" d="M93.5,139.3L93.5,139.3c-13.1,8.2-30.4,5.5-39.7-6.9c-9.1-12-7.5-29.3,3.5-39.7L93.5,139.3z"/>
<path class="st2" d="M57.6,89.4l-1.8,1.8c-7.5,7.1-10.9,17.1-10,26.6c-0.4,0.2-0.9,0.4-1.3,0.7c-14.2,5.8-30.4-0.4-37.7-13.7
	l54.5-22.8c0.4,1.3,0.7,2.9,0.9,4.4c-0.2,0-0.4,0.2-0.9,0.4l-2,1.1L57.6,89.4z"/>
</svg>
