<?xml version="1.0" encoding="utf-8"?>
<!-- Generator: Adobe Illustrator 21.0.2, SVG Export Plug-In . SVG Version: 6.00 Build 0)  -->
<svg version="1.1" id="Layer_1" xmlns="http://www.w3.org/2000/svg" xmlns:xlink="http://www.w3.org/1999/xlink" x="0px" y="0px"
	 viewBox="0 0 144 144" style="enable-background:new 0 0 144 144;" xml:space="preserve">
<style type="text/css">
	.st0{fill:#1CA4D6;}
	.st1{fill:#FED402;}
	.st2{fill-rule:evenodd;clip-rule:evenodd;fill:#FED402;}
	.st3{fill-rule:evenodd;clip-rule:evenodd;fill:#FFFFFF;}
</style>
<rect x="-194.7" y="-7.4" class="st0" width="144" height="144"/>
<rect x="-85.5" y="9.5" class="st1" width="68" height="62"/>
<path class="st2" d="M83.6,84c-3.2,2.8-9.4,9.6-11.2,9.6c-1.6,0-7.2-6-10.6-9l-0.4-0.4c-4.6-4.2-10-8.8-14.8-13.6h5.6
	c1.4,0,2.6-1,3-2.2l2.6-10.8l5.8,21.2c0.4,1.2,1.6,2.2,3,2.2l0,0c1.4,0,2.6-1,3-2.2l6.8-22.8l2.8,18.4c0,1.2,1.2,2.2,2.6,2.4
	c1.4,0.2,2.6-0.6,3.2-1.8l6-13.4l1.8,6.8c0.4,1.4,1.6,2.2,3,2.2h2.4C93.4,75.4,88.2,80,83.6,84L83.6,84z"/>
<path class="st2" d="M111.6,50.9c-0.8,4.2-3.8,9-8,13.8h-5.4l-3.6-13c-0.4-1.2-1.4-2-2.8-2c-1.2-0.2-2.4,0.6-3,1.6l-5.2,11.6
	l-3-21.4c-0.2-1.4-1.4-2.4-2.8-2.4c-1.4-0.2-2.8,0.8-3.2,2L66.8,67l-6-22c-0.4-1.2-1.6-2.2-3-2.2l0,0c-1.4,0-2.6,1-3,2.2l-5,19.8
	h-8.6c-4.4-4.8-7.4-9.6-8.2-13.8c-1.2-6.4-0.2-11.6,2.8-15.4c3-3.6,8-5.8,15.4-6.6c0.6,0,1,0,1.6,0c6.2,0,12.6,2.6,16.4,7
	c0.8,0.8,2,1.4,3.2,1.4c1,0,2.2-0.6,3-1.4c3.8-4.4,10.2-7,16.4-7c0.6,0,1.2,0,1.6,0c7.4,0.8,12.4,3,15.4,6.6
	C111.8,39.3,112.8,44.5,111.6,50.9L111.6,50.9z"/>
<path class="st3" d="M142.5,27.9c-7.4-4-19.4,28.2-20.6,31.1l-0.2,0.4l0.4-0.2c3,0,5.2,0.8,6.2,2.4c1.2,2.6-0.2,6.4-4,11
	c-3.2,3.8-8.2,8.2-14.4,12.6c0.6-0.6,1.2-1.2,1.8-1.8c4-4,7.6-7.6,10.2-11c4-4.8,5.2-7.8,3.8-9.8c-0.8-1.6-2.4-1.8-4.6-1
	c-14.8,5.8-39.5,30.6-49.1,47.3c-9.6-16.6-34.1-41.5-49.1-47.3c-2.2-0.8-3.8-0.6-4.6,1c-1.4,2-0.2,5,3.8,9.8c2.6,3.4,6.4,7,10.2,11
	c0.6,0.6,1.2,1.2,1.8,1.8c-6.2-4.4-11-8.8-14.4-12.6c-3.8-4.6-5.2-8.4-3.8-11c0.8-1.6,3-2.4,6-2.4l0.4,0.2v-0.4
	C20.9,56.1,9.1,23.9,1.5,27.9c-0.8,0.4-2.2,1.8-1,5.8C2.1,39.3,12.1,77,16.7,82.6c0.8,1.2,1.8,2.2,3,3c11.8,9.2,28.3,16.2,36.3,28.8
	c7.4,3.4,12.6,2.4,16-2c3.4,4.4,8.6,5.4,16,2c8.2-12.6,24.4-19.6,36.3-28.8c1.2-0.8,2.2-1.8,3.2-3c4.4-5.6,14.4-43.3,16-48.9
	C144.7,29.7,143.5,28.3,142.5,27.9L142.5,27.9z"/>
</svg>
