<?xml version="1.0" encoding="utf-8"?>
<!-- Generator: Adobe Illustrator 21.0.2, SVG Export Plug-In . SVG Version: 6.00 Build 0)  -->
<svg version="1.1" id="Layer_1" xmlns="http://www.w3.org/2000/svg" xmlns:xlink="http://www.w3.org/1999/xlink" x="0px" y="0px"
	 viewBox="0 0 144 144" style="enable-background:new 0 0 144 144;" xml:space="preserve">
<style type="text/css">
	.st0{fill:#1CA4D6;}
	.st1{fill:#FED402;}
</style>
<rect x="-198.3" y="-18" class="st0" width="144" height="144"/>
<rect x="-85.5" y="9.5" class="st1" width="68" height="62"/>
<path class="st1" d="M117.3,136H77.1c-2.5,0-4.5-2.1-4.5-4.5V121c0-4.1,2.7-8,6.4-9.7c1.4-0.6,2.3-2.3,1.6-3.7l-3.9-9.9
	c-0.4-1.2,0.2-2.3,1.2-2.7L108.3,83c1-0.4,1.9-1,2.3-2.1c0.4-1,0.4-2.1,0-3.1c-0.8-2.1-3.1-2.9-4.9-2.3L58,94.1
	c-1.4,0.6-2.3,2.3-1.9,3.7l0.6,1.6c0.2,0.8,0.2,1.4-0.4,1.9c-0.4,0.6-1,0.8-1.6,0.8c-4.5-0.8-12.5-3.9-15.2-17.5
	C35.6,65.3,53.2,56,62.1,52.5c1-0.4,2.1-0.4,3.1,0.2c1.2,0.4,1.8,1.2,2.3,2.3L66,55.8c-0.6,0.2-0.8,1-0.6,1.6
	c0.4,0.4,0.6,0.6,1.2,0.6c0,0,0.2,0,0.4-0.2l1.4-0.6c1.2,1.9,3.1,3.3,5.1,4.1l-0.2,1.9c-0.2,0.6,0.4,1.2,1,1.4c0,0,0,0,0.2,0
	c0.4,0,1-0.6,1-1l0.2-1.6c0.6,0.2,1.4,0.2,2.1,0.2c1.4,0,2.9-0.2,4.1-0.8l1,1.9c0.2,0.4,0.6,0.6,1,0.6c0.2,0,0.4,0,0.6,0
	c0.6-0.2,0.8-1,0.4-1.6l-1-1.8c1.8-1.2,3.1-2.9,3.9-4.5l1.4,0.6c0.2,0.2,0.4,0.2,0.6,0.2c0.4,0,0.8-0.2,1-0.6
	c0.2-0.6,0.2-1.4-0.4-1.6l-1.8-1c0.2-0.6,0.2-1.4,0.2-2.3c0-1.6-0.2-3.1-0.8-4.3l1.2-0.6c0.6-0.4,0.8-1.2,0.4-1.6
	c-0.2-0.6-1-0.8-1.4-0.6l-1.2,0.8c-0.8-1-1.6-2.1-2.9-2.7c-0.4-0.4-0.8-1-1-1.4L69.7,10.8c-1.2-2.5-3.9-3.5-6.4-2.5
	c-0.8,0.4-1.6,0-2.1-0.8L58.6,2c-0.8-1.9-2.9-2.5-4.7-1.6c-1.6,0.8-2.5,2.9-1.6,4.7l2.5,5.1c0.2,0.4,0.2,0.8,0.2,1.2
	c-0.2,0.4-0.6,0.8-1,0.8c-1.2,0.6-2.1,1.6-2.5,2.9c-0.6,1-0.6,2.5,0,3.7l4.1,9.2c0.4,1.4-0.2,3.1-1.6,3.7
	c-11.1,4.9-34.7,19.7-29,52.8C28,101,36.8,108.4,44,112.1c3.9,1.6,6.2,5.6,6.2,9.7v9.2c0,2.7-2.1,4.7-4.7,4.7H35.1
	c-1.7,0-2.9,1.2-2.9,2.7v5.5H120v-5.4C120,137.2,119,136,117.3,136L117.3,136z"/>
</svg>
